<?xml version="1.0" standalone="no"?><!DOCTYPE svg PUBLIC "-//W3C//DTD SVG 1.1//EN" "http://www.w3.org/Graphics/SVG/1.1/DTD/svg11.dtd"><svg t="1630478747261" class="icon" viewBox="0 0 1024 1024" version="1.1" xmlns="http://www.w3.org/2000/svg" p-id="2344" xmlns:xlink="http://www.w3.org/1999/xlink" width="200" height="200"><defs><style type="text/css"></style></defs><path d="M128 288h576v448H128V288z m-32-64c-17.673 0-32 14.327-32 32v512c0 17.673 14.327 32 32 32h640c17.673 0 32-14.327 32-32V256c0-17.673-14.327-32-32-32H96z" fill="#777777" p-id="2345"></path><path d="M770 469.414l126-70.937v196.421l-126-70.441v-55.043z m-47.699-46.591A32 32 0 0 0 706 450.707v92.522a32 32 0 0 0 16.385 27.931l190 106.22c21.33 11.925 47.615-3.494 47.615-27.931v-305.71c0-24.48-26.367-39.894-47.699-27.885l-190 106.969z" fill="#777777" p-id="2346"></path></svg>